<svg width="63" height="45" viewBox="0 0 63 45" fill="none" xmlns="http://www.w3.org/2000/svg">
<path d="M2.688 14.624C3.12 15.008 3.6 15.32 4.128 15.608C4.632 15.896 5.184 16.16 5.76 16.352C6.336 16.568 6.936 16.712 7.56 16.808C8.16 16.928 8.784 16.976 9.408 16.952C10.368 16.952 11.16 16.76 11.784 16.4C12.384 16.064 12.696 15.488 12.696 14.72C12.696 13.856 12.384 13.208 11.784 12.752C11.16 12.32 10.272 11.984 9.096 11.696C7.896 11.456 6.84 11.144 5.928 10.784C4.992 10.448 4.224 10.016 3.6 9.536C2.976 9.056 2.496 8.504 2.184 7.856C1.848 7.232 1.704 6.488 1.704 5.624C1.704 4.712 1.896 3.92 2.28 3.248C2.664 2.6 3.168 2.048 3.84 1.592C4.488 1.16 5.232 0.823999 6.096 0.584C6.936 0.391999 7.824 0.271999 8.784 0.271999C10.056 0.271999 11.28 0.487999 12.432 0.871999C13.584 1.304 14.736 1.856 15.888 2.576L14.472 5.432C13.704 4.88 12.816 4.424 11.856 4.04C10.872 3.68 9.888 3.488 8.928 3.44C8.52 3.44 8.112 3.464 7.728 3.512C7.296 3.584 6.936 3.704 6.624 3.848C6.288 4.016 6 4.232 5.808 4.496C5.592 4.784 5.496 5.12 5.496 5.504C5.496 5.864 5.544 6.176 5.664 6.416C5.76 6.704 5.976 6.944 6.264 7.136C6.552 7.376 6.936 7.568 7.416 7.76C7.896 7.952 8.496 8.144 9.264 8.336C10.584 8.696 11.712 9.056 12.648 9.44C13.56 9.848 14.304 10.28 14.88 10.76C15.432 11.264 15.84 11.816 16.104 12.44C16.344 13.064 16.488 13.808 16.488 14.624C16.488 15.536 16.296 16.304 15.912 16.976C15.528 17.648 15 18.224 14.352 18.704C13.68 19.16 12.912 19.52 12.024 19.76C11.112 20 10.128 20.12 9.12 20.12C7.656 20.12 6.264 19.856 4.92 19.376C3.552 18.872 2.328 18.248 1.224 17.48L2.688 14.624ZM30.1688 5.648H33.4808V19.64H30.2648L29.8088 17.792C29.5208 18.152 29.1608 18.488 28.7528 18.8C28.3208 19.088 27.8888 19.328 27.4088 19.544C26.9048 19.736 26.4008 19.88 25.8728 20C25.3448 20.096 24.8168 20.12 24.3128 20.12C23.3288 20.096 22.4168 19.904 21.5528 19.52C20.6648 19.136 19.8968 18.608 19.2488 17.96C18.5768 17.288 18.0488 16.52 17.6648 15.608C17.2808 14.72 17.0888 13.736 17.0888 12.68C17.0888 11.6 17.2808 10.592 17.6888 9.656C18.0728 8.744 18.6248 7.952 19.2968 7.28C19.9688 6.632 20.7368 6.104 21.6008 5.72C22.4648 5.36 23.3528 5.168 24.2888 5.168C25.4408 5.168 26.4728 5.36 27.4328 5.744C28.3688 6.128 29.1368 6.68 29.7368 7.376L30.1688 5.648ZM25.0568 17.192C25.6328 17.192 26.1608 17.072 26.6888 16.88C27.1928 16.688 27.6488 16.376 28.0328 15.968C28.3928 15.584 28.6808 15.128 28.9208 14.552C29.1128 14 29.2328 13.376 29.2328 12.68C29.2328 11.96 29.1128 11.336 28.9208 10.76C28.6808 10.208 28.3928 9.728 28.0328 9.32C27.6488 8.936 27.1928 8.648 26.6888 8.432C26.1608 8.24 25.6328 8.12 25.0568 8.12C24.4808 8.12 23.9288 8.24 23.4248 8.432C22.8968 8.648 22.4648 8.936 22.1048 9.32C21.7208 9.728 21.4088 10.208 21.2168 10.76C20.9768 11.336 20.8808 11.96 20.8808 12.68C20.8808 13.376 20.9768 14 21.2168 14.552C21.4088 15.128 21.7208 15.584 22.1048 15.968C22.4648 16.376 22.8968 16.688 23.4248 16.88C23.9288 17.072 24.4808 17.192 25.0568 17.192ZM41.1756 19.64H37.3836V8.816H34.5516V5.888H37.3836V4.304C37.3836 3.752 37.4796 3.248 37.6716 2.792C37.8636 2.36 38.1276 2 38.4636 1.688C38.7996 1.4 39.1836 1.16 39.6636 0.991999C40.0956 0.847999 40.5756 0.751999 41.1036 0.751999H44.9196V3.68H42.6876C42.1596 3.68 41.7996 3.824 41.5596 4.064C41.2956 4.352 41.1756 4.712 41.1756 5.192V5.888H44.6796V8.816H41.1756V19.64ZM49.0003 15.032C49.3363 15.8 49.8403 16.4 50.5363 16.808C51.2083 17.216 52.0723 17.432 53.1043 17.432C54.0643 17.432 54.9283 17.264 55.7443 16.952C56.5123 16.64 57.2323 16.088 57.8803 15.32L60.3043 17.168C59.4643 18.176 58.4563 18.944 57.3043 19.52C56.1283 20.072 54.8563 20.36 53.4883 20.36C52.2883 20.36 51.1843 20.168 50.1763 19.832C49.1443 19.448 48.2563 18.944 47.5123 18.296C46.7443 17.624 46.1443 16.808 45.7123 15.848C45.2563 14.912 45.0403 13.856 45.0403 12.656C45.0403 11.504 45.2323 10.448 45.6643 9.488C46.0723 8.552 46.6483 7.736 47.3683 7.04C48.0883 6.368 48.9283 5.84 49.9363 5.456C50.8963 5.096 51.9763 4.904 53.1283 4.904C54.2323 4.904 55.2643 5.096 56.2243 5.456C57.1363 5.84 57.9523 6.344 58.6483 6.968C59.3203 7.64 59.8723 8.408 60.3043 9.296C60.6883 10.208 60.9283 11.216 60.9763 12.272L49.0003 15.032ZM53.2963 7.832C51.8563 7.832 50.7523 8.24 49.9363 9.008C49.0963 9.824 48.6403 10.904 48.5683 12.248L57.2083 10.184C56.7763 9.368 56.2483 8.768 55.5763 8.384C54.9043 8.024 54.1363 7.832 53.2963 7.832ZM12.384 30.608L9.408 43.64H5.928L0.672 24.752H4.296L7.656 37.28L10.584 24.752H14.208L17.136 37.28L20.496 24.752H24.12L18.864 43.64H15.384L12.384 30.608ZM36.8016 29.648H40.1136V43.64H36.8976L36.4416 41.792C36.1536 42.152 35.7936 42.488 35.3856 42.8C34.9536 43.088 34.5216 43.328 34.0416 43.544C33.5376 43.736 33.0336 43.88 32.5056 44C31.9776 44.096 31.4496 44.12 30.9456 44.12C29.9616 44.096 29.0496 43.904 28.1856 43.52C27.2976 43.136 26.5296 42.608 25.8816 41.96C25.2096 41.288 24.6816 40.52 24.2976 39.608C23.9136 38.72 23.7216 37.736 23.7216 36.68C23.7216 35.6 23.9136 34.592 24.3216 33.656C24.7056 32.744 25.2576 31.952 25.9296 31.28C26.6016 30.632 27.3696 30.104 28.2336 29.72C29.0976 29.36 29.9856 29.168 30.9216 29.168C32.0736 29.168 33.1056 29.36 34.0656 29.744C35.0016 30.128 35.7696 30.68 36.3696 31.376L36.8016 29.648ZM31.6896 41.192C32.2656 41.192 32.7936 41.072 33.3216 40.88C33.8256 40.688 34.2816 40.376 34.6656 39.968C35.0256 39.584 35.3136 39.128 35.5536 38.552C35.7456 38 35.8656 37.376 35.8656 36.68C35.8656 35.96 35.7456 35.336 35.5536 34.76C35.3136 34.208 35.0256 33.728 34.6656 33.32C34.2816 32.936 33.8256 32.648 33.3216 32.432C32.7936 32.24 32.2656 32.12 31.6896 32.12C31.1136 32.12 30.5616 32.24 30.0576 32.432C29.5296 32.648 29.0976 32.936 28.7376 33.32C28.3536 33.728 28.0416 34.208 27.8496 34.76C27.6096 35.336 27.5136 35.96 27.5136 36.68C27.5136 37.376 27.6096 38 27.8496 38.552C28.0416 39.128 28.3536 39.584 28.7376 39.968C29.0976 40.376 29.5296 40.688 30.0576 40.88C30.5616 41.072 31.1136 41.192 31.6896 41.192ZM46.0564 24.752V43.64H42.2644V24.752H46.0564ZM57.8128 43.64L52.1248 37.712V43.64H48.3328V24.752H52.1248V34.832L57.5728 29.648H62.1568L55.2448 36.176L62.3968 43.64H57.8128Z" fill="#326CF9"/>
</svg>
