<svg width="62" height="71" viewBox="0 0 62 71" fill="none" xmlns="http://www.w3.org/2000/svg">
<g filter="url(#filter0_d_134_340)">
<path d="M30 6.5C43.531 6.5 54.5 17.469 54.5 31C54.5 43.4171 45.2473 54.5834 33.1396 60.1699C31.1479 61.0889 28.8521 61.0889 26.8604 60.1699C14.7527 54.5834 5.5 43.4171 5.5 31C5.5 17.469 16.469 6.5 30 6.5Z" fill="#EF4136" fill-opacity="0.3" stroke="#EF4136"/>
<circle cx="30" cy="31" r="20" fill="#EF4136"/>
<path d="M31.7499 25.5C32.3467 25.5 32.919 25.2629 33.3409 24.841C33.7629 24.419 33.9999 23.8467 33.9999 23.25C33.9999 22.6533 33.7629 22.081 33.3409 21.659C32.919 21.2371 32.3467 21 31.7499 21C31.1532 21 30.5809 21.2371 30.159 21.659C29.737 22.081 29.4999 22.6533 29.4999 23.25C29.4999 23.8467 29.737 24.419 30.159 24.841C30.5809 25.2629 31.1532 25.5 31.7499 25.5ZM31.7759 31.247L31.2659 33.427L33.8879 35.968L34.9609 39.725C35.0339 39.98 35.0025 40.2535 34.8738 40.4854C34.745 40.7173 34.5295 40.8886 34.2744 40.9615C34.0194 41.0344 33.7459 41.0031 33.514 40.8743C33.2821 40.7456 33.1109 40.53 33.0379 40.275L32.1119 37.032L27.4639 32.527C27.3282 32.4269 27.22 32.2941 27.1493 32.1409C27.0787 31.9878 27.0479 31.8192 27.0599 31.651L27.2559 28.915C26.5619 29.698 25.8759 30.821 25.4609 32.275C25.388 32.53 25.2168 32.7456 24.9849 32.8743C24.753 33.0031 24.4795 33.0344 24.2244 32.9615C23.9694 32.8886 23.7539 32.7173 23.6251 32.4854C23.4964 32.2535 23.465 31.98 23.5379 31.725C24.0839 29.814 25.0299 28.333 26.0089 27.318C26.4462 26.8559 26.9445 26.4555 27.4899 26.128C27.9519 25.861 28.4829 25.65 28.9999 25.65C29.0499 25.65 29.0999 25.6537 29.1499 25.661C29.2153 25.6597 29.2819 25.662 29.3499 25.668C29.8924 25.7164 30.4133 25.9033 30.8628 26.2108C31.3122 26.5182 31.6752 26.936 31.9169 27.424C31.9389 27.4547 31.9596 27.488 31.9789 27.524L33.2089 29.788C33.3488 30.0456 33.5435 30.2694 33.7794 30.4434C34.0153 30.6174 34.2865 30.7374 34.5739 30.795L35.6959 31.02C35.8284 31.0418 35.9551 31.09 36.0685 31.1618C36.1819 31.2336 36.2797 31.3274 36.3561 31.4378C36.4324 31.5482 36.4858 31.6728 36.513 31.8043C36.5401 31.9357 36.5406 32.0713 36.5143 32.2029C36.4879 32.3345 36.4354 32.4594 36.3598 32.5703C36.2841 32.6812 36.1869 32.7757 36.074 32.8482C35.961 32.9207 35.8347 32.9698 35.7024 32.9924C35.5701 33.0151 35.4346 33.0108 35.3039 32.98L34.1819 32.756C33.2222 32.564 32.3662 32.0277 31.7759 31.247Z" fill="white"/>
<path d="M26.144 37.4041L27.353 33.7781L28.949 35.3161L28.042 38.0361C27.9202 38.4021 27.6952 38.7251 27.394 38.9661L25.124 40.7811C25.0215 40.8641 24.9037 40.926 24.7772 40.9632C24.6507 41.0005 24.5181 41.0123 24.3871 40.9982C24.256 40.984 24.129 40.944 24.0134 40.8806C23.8978 40.8171 23.796 40.7314 23.7136 40.6285C23.6313 40.5255 23.5701 40.4073 23.5336 40.2806C23.4972 40.1539 23.4861 40.0212 23.5011 39.8902C23.5161 39.7592 23.5569 39.6325 23.621 39.5173C23.6852 39.4021 23.7715 39.3008 23.875 39.2191L26.144 37.4041Z" fill="white"/>
<circle cx="46" cy="12" r="11" fill="white"/>
</g>
<ellipse cx="30" cy="66" rx="8" ry="3" fill="#9E9E9E" fill-opacity="0.7"/>
<defs>
<filter id="filter0_d_134_340" x="-5" y="0" width="70" height="70.3589" filterUnits="userSpaceOnUse" color-interpolation-filters="sRGB">
<feFlood flood-opacity="0" result="BackgroundImageFix"/>
<feColorMatrix in="SourceAlpha" type="matrix" values="0 0 0 0 0 0 0 0 0 0 0 0 0 0 0 0 0 0 127 0" result="hardAlpha"/>
<feOffset dy="4"/>
<feGaussianBlur stdDeviation="2.5"/>
<feComposite in2="hardAlpha" operator="out"/>
<feColorMatrix type="matrix" values="0 0 0 0 0.937255 0 0 0 0 0.254902 0 0 0 0 0.211765 0 0 0 0.3 0"/>
<feBlend mode="normal" in2="BackgroundImageFix" result="effect1_dropShadow_134_340"/>
<feBlend mode="normal" in="SourceGraphic" in2="effect1_dropShadow_134_340" result="shape"/>
</filter>
</defs>
</svg>
