<svg width="35" height="34" viewBox="0 0 35 34" fill="none" xmlns="http://www.w3.org/2000/svg">
<circle cx="17.5" cy="17" r="16.5" fill="white" stroke="#D9D9D9"/>
<path d="M17.5 19.5962C17.3225 19.5962 17.1738 19.5362 17.0538 19.4162C16.9338 19.2962 16.8742 19.1479 16.875 18.9712V10.2212C16.875 10.0445 16.935 9.89619 17.055 9.77619C17.175 9.65619 17.3238 9.59619 17.5013 9.59619C17.6788 9.59619 17.8271 9.65619 17.9463 9.77619C18.0654 9.89619 18.125 10.0445 18.125 10.2212V18.9712C18.125 19.1487 18.065 19.297 17.945 19.4162C17.825 19.5354 17.6763 19.5954 17.4988 19.5962M17.4988 24.4037C17.3213 24.4037 17.1729 24.3437 17.0538 24.2237C16.9346 24.1037 16.875 23.9554 16.875 23.7787C16.875 23.602 16.935 23.4533 17.055 23.3324C17.175 23.2116 17.3238 23.152 17.5013 23.1537C17.6788 23.1554 17.8271 23.2154 17.9463 23.3337C18.0654 23.452 18.125 23.6008 18.125 23.7799C18.125 23.9591 18.065 24.1074 17.945 24.2249C17.825 24.3424 17.6763 24.402 17.4988 24.4037Z" fill="#555555"/>
</svg>
