<svg width="123" height="21" viewBox="0 0 123 21" fill="none" xmlns="http://www.w3.org/2000/svg">
<path d="M1.688 14.624C2.12 14.992 2.592 15.32 3.104 15.608C3.632 15.896 4.184 16.144 4.76 16.352C5.336 16.56 5.928 16.72 6.536 16.832C7.16 16.928 7.784 16.968 8.408 16.952C9.368 16.936 10.152 16.752 10.76 16.4C11.384 16.048 11.696 15.488 11.696 14.72C11.696 13.856 11.392 13.208 10.784 12.776C10.176 12.328 9.28 11.968 8.096 11.696C6.896 11.44 5.832 11.136 4.904 10.784C3.992 10.432 3.224 10.016 2.6 9.536C1.976 9.056 1.504 8.496 1.184 7.856C0.864 7.216 0.704 6.472 0.704 5.624C0.704 4.712 0.896 3.928 1.28 3.272C1.664 2.6 2.184 2.04 2.84 1.592C3.496 1.144 4.248 0.816 5.096 0.607999C5.944 0.383999 6.84 0.271999 7.784 0.271999C9.064 0.271999 10.28 0.48 11.432 0.896C12.584 1.296 13.736 1.856 14.888 2.576L13.472 5.432C12.704 4.872 11.832 4.408 10.856 4.04C9.88 3.672 8.904 3.472 7.928 3.44C7.528 3.424 7.12 3.448 6.704 3.512C6.304 3.576 5.936 3.688 5.6 3.848C5.28 4.008 5.016 4.224 4.808 4.496C4.6 4.768 4.496 5.104 4.496 5.504C4.496 5.856 4.552 6.168 4.664 6.44C4.776 6.696 4.976 6.936 5.264 7.16C5.552 7.368 5.936 7.568 6.416 7.76C6.896 7.952 7.512 8.144 8.264 8.336C9.592 8.688 10.712 9.064 11.624 9.464C12.552 9.848 13.296 10.288 13.856 10.784C14.432 11.264 14.848 11.816 15.104 12.44C15.36 13.064 15.488 13.792 15.488 14.624C15.488 15.52 15.296 16.312 14.912 17C14.528 17.672 14.008 18.24 13.352 18.704C12.696 19.168 11.912 19.52 11 19.76C10.104 20 9.144 20.12 8.12 20.12C6.664 20.12 5.256 19.872 3.896 19.376C2.552 18.88 1.328 18.248 0.224 17.48L1.688 14.624ZM29.1688 5.648H32.4808V19.64H29.2648L28.8088 17.792C28.5208 18.16 28.1688 18.488 27.7528 18.776C27.3368 19.08 26.8808 19.328 26.3848 19.52C25.9048 19.728 25.4008 19.88 24.8728 19.976C24.3448 20.088 23.8248 20.136 23.3128 20.12C22.3368 20.104 21.4088 19.904 20.5288 19.52C19.6648 19.136 18.8968 18.616 18.2248 17.96C17.5688 17.304 17.0488 16.528 16.6648 15.632C16.2808 14.72 16.0888 13.736 16.0888 12.68C16.0888 11.592 16.2888 10.592 16.6888 9.68C17.0888 8.752 17.6248 7.96 18.2968 7.304C18.9688 6.632 19.7368 6.112 20.6008 5.744C21.4648 5.36 22.3608 5.168 23.2888 5.168C24.4408 5.168 25.4888 5.36 26.4328 5.744C27.3768 6.128 28.1448 6.672 28.7368 7.376L29.1688 5.648ZM24.0568 17.192C24.6328 17.192 25.1768 17.088 25.6888 16.88C26.2008 16.672 26.6408 16.376 27.0088 15.992C27.3928 15.592 27.6888 15.112 27.8968 14.552C28.1208 13.992 28.2328 13.368 28.2328 12.68C28.2328 11.96 28.1208 11.32 27.8968 10.76C27.6888 10.2 27.3928 9.728 27.0088 9.344C26.6408 8.944 26.2008 8.64 25.6888 8.432C25.1768 8.224 24.6328 8.12 24.0568 8.12C23.4808 8.12 22.9368 8.224 22.4248 8.432C21.9128 8.64 21.4648 8.944 21.0808 9.344C20.7128 9.728 20.4168 10.2 20.1928 10.76C19.9848 11.32 19.8808 11.96 19.8808 12.68C19.8808 13.368 19.9848 13.992 20.1928 14.552C20.4168 15.112 20.7128 15.592 21.0808 15.992C21.4648 16.376 21.9128 16.672 22.4248 16.88C22.9368 17.088 23.4808 17.192 24.0568 17.192ZM40.1756 19.64H36.3836V8.816H33.5516V5.888H36.3836V4.304C36.3836 3.744 36.4796 3.248 36.6716 2.816C36.8636 2.368 37.1276 1.992 37.4636 1.688C37.7996 1.384 38.1916 1.152 38.6396 0.991999C39.1036 0.831999 39.5916 0.751999 40.1036 0.751999H43.9196V3.68H41.6876C41.1756 3.68 40.7916 3.816 40.5356 4.088C40.2956 4.344 40.1756 4.712 40.1756 5.192V5.888H43.6796V8.816H40.1756V19.64ZM48.0003 15.032C48.3363 15.8 48.8483 16.392 49.5363 16.808C50.2243 17.224 51.0803 17.432 52.1043 17.432C53.0643 17.432 53.9363 17.272 54.7203 16.952C55.5203 16.632 56.2403 16.088 56.8803 15.32L59.3043 17.168C58.4723 18.176 57.4723 18.96 56.3043 19.52C55.1363 20.08 53.8643 20.36 52.4883 20.36C51.3043 20.36 50.2003 20.176 49.1763 19.808C48.1523 19.456 47.2563 18.944 46.4883 18.272C45.7363 17.616 45.1363 16.816 44.6883 15.872C44.2563 14.912 44.0403 13.84 44.0403 12.656C44.0403 11.504 44.2483 10.456 44.6643 9.512C45.0803 8.552 45.6483 7.736 46.3683 7.064C47.0883 6.376 47.9363 5.848 48.9123 5.48C49.9043 5.096 50.9763 4.904 52.1283 4.904C53.2483 4.904 54.2723 5.088 55.2003 5.456C56.1443 5.824 56.9603 6.336 57.6483 6.992C58.3363 7.632 58.8803 8.408 59.2803 9.32C59.6963 10.216 59.9283 11.2 59.9763 12.272L48.0003 15.032ZM52.2963 7.832C50.8723 7.832 49.7443 8.232 48.9123 9.032C48.0963 9.816 47.6483 10.888 47.5683 12.248L56.2083 10.184C55.7923 9.352 55.2483 8.752 54.5763 8.384C53.9043 8.016 53.1443 7.832 52.2963 7.832ZM72.3731 6.608L69.3971 19.64H65.9171L60.6611 0.751999H64.2851L67.6451 13.28L70.5731 0.751999H74.1971L77.1251 13.28L80.4851 0.751999H84.1091L78.8531 19.64H75.3731L72.3731 6.608ZM96.7906 5.648H100.103V19.64H96.8866L96.4306 17.792C96.1426 18.16 95.7906 18.488 95.3746 18.776C94.9586 19.08 94.5026 19.328 94.0066 19.52C93.5266 19.728 93.0226 19.88 92.4946 19.976C91.9666 20.088 91.4466 20.136 90.9346 20.12C89.9586 20.104 89.0306 19.904 88.1506 19.52C87.2866 19.136 86.5186 18.616 85.8466 17.96C85.1906 17.304 84.6706 16.528 84.2866 15.632C83.9026 14.72 83.7106 13.736 83.7106 12.68C83.7106 11.592 83.9106 10.592 84.3106 9.68C84.7106 8.752 85.2466 7.96 85.9186 7.304C86.5906 6.632 87.3586 6.112 88.2226 5.744C89.0866 5.36 89.9826 5.168 90.9106 5.168C92.0626 5.168 93.1106 5.36 94.0546 5.744C94.9986 6.128 95.7666 6.672 96.3586 7.376L96.7906 5.648ZM91.6786 17.192C92.2546 17.192 92.7986 17.088 93.3106 16.88C93.8226 16.672 94.2626 16.376 94.6306 15.992C95.0146 15.592 95.3106 15.112 95.5186 14.552C95.7426 13.992 95.8546 13.368 95.8546 12.68C95.8546 11.96 95.7426 11.32 95.5186 10.76C95.3106 10.2 95.0146 9.728 94.6306 9.344C94.2626 8.944 93.8226 8.64 93.3106 8.432C92.7986 8.224 92.2546 8.12 91.6786 8.12C91.1026 8.12 90.5586 8.224 90.0466 8.432C89.5346 8.64 89.0866 8.944 88.7026 9.344C88.3346 9.728 88.0386 10.2 87.8146 10.76C87.6066 11.32 87.5026 11.96 87.5026 12.68C87.5026 13.368 87.6066 13.992 87.8146 14.552C88.0386 15.112 88.3346 15.592 88.7026 15.992C89.0866 16.376 89.5346 16.672 90.0466 16.88C90.5586 17.088 91.1026 17.192 91.6786 17.192ZM106.045 0.751999V19.64H102.253V0.751999H106.045ZM117.802 19.64L112.114 13.712V19.64H108.322V0.751999H112.114V10.832L117.562 5.648H122.146L115.234 12.176L122.386 19.64H117.802Z" fill="#326CF9"/>
</svg>
