<svg width="20" height="20" viewBox="0 0 20 20" fill="none" xmlns="http://www.w3.org/2000/svg">
<path fill-rule="evenodd" clip-rule="evenodd" d="M12.6082 11.7838C13.2529 10.9217 13.5451 9.84623 13.4253 8.77625C13.3054 7.70626 12.7827 6.72213 11.9633 6.02405C11.1439 5.32597 10.0895 4.96639 9.01447 5.01846C7.93949 5.07053 6.92471 5.53034 6.1766 6.30434C5.42782 7.07889 5.00246 8.10991 4.98717 9.18732C4.97189 10.2647 5.36785 11.3074 6.09435 12.1029C6.82085 12.8984 7.82322 13.3869 8.8972 13.4687C9.97117 13.5506 11.0359 13.2197 11.8745 12.5434L11.8976 12.5668L14.1804 14.7727C14.2304 14.821 14.2894 14.859 14.3541 14.8844C14.4188 14.9099 14.4878 14.9224 14.5573 14.9212C14.6268 14.92 14.6954 14.9051 14.7591 14.8774C14.8229 14.8496 14.8805 14.8096 14.9288 14.7596C14.9771 14.7096 15.015 14.6506 15.0405 14.5859C15.066 14.5212 15.0785 14.4521 15.0773 14.3826C15.076 14.313 15.0612 14.2444 15.0334 14.1807C15.0057 14.1169 14.9657 14.0592 14.9157 14.0109L12.6324 11.8056L12.6082 11.7838ZM11.4258 6.96163C11.7295 7.25033 11.9731 7.59633 12.1425 7.97968C12.3119 8.36303 12.4038 8.77614 12.4128 9.19519C12.4218 9.61423 12.3478 10.0309 12.1951 10.4212C12.0423 10.8115 11.8138 11.1677 11.5228 11.4692C11.2317 11.7707 10.8839 12.0115 10.4993 12.1779C10.1148 12.3442 9.7011 12.4327 9.28217 12.4384C8.86323 12.444 8.44733 12.3665 8.05846 12.2105C7.66958 12.0545 7.31542 11.8231 7.01642 11.5295C6.41888 10.9427 6.0773 10.1435 6.06609 9.30597C6.05488 8.46843 6.37495 7.66038 6.95657 7.05786C7.53819 6.45533 8.33425 6.10713 9.17134 6.08911C10.0084 6.07108 10.8187 6.3847 11.4258 6.96163Z" fill="#555555"/>
</svg>
